<svg width="206" height="206" viewBox="0 0 206 206" fill="none" xmlns="http://www.w3.org/2000/svg">
<rect width="206" height="206" rx="51" fill="#4A4A4A"/>
<path d="M32.456 158C30.5787 158 29 157.36 27.72 156.08C26.44 154.8 25.8 153.221 25.8 151.344V64.688C25.8 62.7253 26.44 61.1467 27.72 59.952C29 58.672 30.5787 58.032 32.456 58.032H55.624C62.9627 58.032 69.6187 59.2693 75.592 61.744C81.6507 64.1333 86.8987 67.5893 91.336 72.112C95.7733 76.5493 99.1867 81.7973 101.576 87.856C103.965 93.9147 105.16 100.613 105.16 107.952C105.16 115.291 103.965 122.032 101.576 128.176C99.1867 134.235 95.7733 139.525 91.336 144.048C86.8987 148.485 81.6507 151.941 75.592 154.416C69.6187 156.805 62.9627 158 55.624 158H32.456ZM39.112 146.224H55.624C62.792 146.224 69.1067 144.603 74.568 141.36C80.1147 138.032 84.4667 133.509 87.624 127.792C90.7813 121.989 92.36 115.376 92.36 107.952C92.36 100.443 90.7813 93.8293 87.624 88.112C84.4667 82.3947 80.1147 77.9147 74.568 74.672C69.1067 71.4293 62.792 69.808 55.624 69.808H39.112V146.224Z" fill="white"/>
<path d="M124.642 158C122.765 158 121.186 157.36 119.906 156.08C118.626 154.8 117.986 153.221 117.986 151.344V64.688C117.986 62.7253 118.626 61.1467 119.906 59.952C121.186 58.672 122.765 58.032 124.642 58.032H182.498C184.461 58.032 186.039 58.6293 187.234 59.824C188.429 60.9333 189.026 62.4267 189.026 64.304C189.026 66.096 188.429 67.5467 187.234 68.656C186.039 69.7653 184.461 70.32 182.498 70.32H131.298V101.424H168.034C169.997 101.424 171.575 102.021 172.77 103.216C173.965 104.325 174.562 105.776 174.562 107.568C174.562 109.36 173.965 110.853 172.77 112.048C171.575 113.157 169.997 113.712 168.034 113.712H131.298V151.344C131.298 153.221 130.658 154.8 129.378 156.08C128.098 157.36 126.519 158 124.642 158Z" fill="#AAD083"/>
<path d="M83.9871 87.7221C83.8336 86.0724 82.3719 84.8594 80.7221 85.0129L53.8382 87.5137C52.1885 87.6672 50.9755 89.129 51.129 90.7787C51.2824 92.4284 52.7442 93.6414 54.3939 93.4879L78.2908 91.265L80.5137 115.162C80.6672 116.812 82.129 118.024 83.7787 117.871C85.4284 117.718 86.6414 116.256 86.4879 114.606L83.9871 87.7221ZM44.3087 136.916L83.3087 89.9157L78.6913 86.0843L39.6913 133.084L44.3087 136.916Z" fill="black"/>
</svg>
